<svg xmlns="http://www.w3.org/2000/svg" width="600" height="374.99" viewBox="0 0 600 374.99"><path d="M153.266 105.52C143.817 112.268 32.341 214.524 0 374.99c0 0 98.865-220.799 217.131-280.416 8.979-4.526 17.578-9.775 25.28-16.238 12.367-10.378 27.166-24.446 17.27-25.012 0 0-2.97-5.4 3.24-8.999 0 0-24.837-9.899-82.882 37.347 0 0 34.874-85.266-24.86-81.554 0 0 12.038 12.26 0 36.558-12.037 24.298-31.61 53.32-47.808 60.07-16.199 6.749-29.023 24.972-29.023 24.972s33.586-10.799 41.091-10.124c7.505.675 43.277-12.824 33.827-6.075zm27.785 66.687h-7.637v24.405c0 8.197-3.291 11.984-8.818 11.984-5.154 0-8.57-3.787-8.57-11.984v-24.405h-7.637v23.973c0 13.162 6.271 18.566 15.958 18.566 10.06 0 16.704-5.714 16.704-18.63v-23.909zm40.38 0h-7.08V186.8c0 6.397.124 11.801.683 17.39h-.124c-1.924-4.533-4.409-9.38-7.142-14.036l-10.803-17.947h-8.756v41.855h7.078v-14.964c0-6.896-.124-12.423-.434-17.825l.249-.062c2.048 4.72 4.781 9.813 7.45 14.407l10.93 18.444h7.95v-41.855zm25.846 19.127c-1.614 5.091-3.166 10.186-4.284 15.15h-.125c-1.055-5.09-2.484-9.933-4.098-15.211l-5.713-19.066h-8.32l13.536 41.855h8.757l14.468-41.855h-8.136l-6.085 19.127zm24.854-19.127h-7.638v41.855h7.638v-41.855zm32.483 35.582H286.98v-12.294h15.773v-6.211h-15.773v-10.806h16.706v-6.27H279.34v41.854h25.273v-6.273zm12.74-10.928h3.852c4.345.126 6.27 1.863 7.512 7.329 1.117 5.213 2.173 8.629 2.796 9.872h7.822c-.807-1.614-1.924-6.457-3.29-11.674-.994-4.035-2.795-6.954-5.836-8.074v-.184c3.974-1.366 7.638-5.032 7.638-10.435 0-3.6-1.304-6.52-3.603-8.445-2.857-2.36-6.892-3.353-12.917-3.353-4.406 0-8.63.373-11.548.932v41.233h7.574V196.86zm0-18.817c.746-.185 2.299-.373 4.72-.373 4.969 0 8.136 2.175 8.136 6.707 0 4.16-3.167 6.895-8.323 6.895h-4.533v-13.229zm36.217 30.368c-3.91 0-7.7-1.243-10.12-2.67l-1.738 6.335c2.296 1.426 6.893 2.67 11.364 2.67 10.741 0 15.832-5.838 15.832-12.608 0-6.024-3.477-9.688-10.74-12.421-5.589-2.173-8.013-3.663-8.013-6.893 0-2.484 2.05-5.03 6.892-5.03 3.913 0 6.831 1.18 8.384 1.988l1.802-6.147c-2.173-1.119-5.466-2.112-9.999-2.112-9.126 0-14.84 5.155-14.84 12.047 0 6.023 4.41 9.687 11.363 12.173 5.279 1.924 7.39 3.787 7.39 6.954 0 3.416-2.73 5.714-7.577 5.714zm28.327-36.205h-7.635v41.855h7.635v-41.855zm15.222 41.855h7.639v-35.46h12.045v-6.395h-31.606v6.396h11.922v35.459zm48.324-6.273h-17.637v-12.294h15.774v-6.211h-15.774v-10.806h16.707v-6.27h-24.342v41.854h25.272v-6.273zm-2.919-45.269h-8.446l-5.462 7.452h6.147l7.761-7.452zm-266.504 61.108h-7.637v17.078h-.124c-1.366-2.237-4.347-3.913-8.507-3.913-7.265 0-13.6 6.025-13.538 16.146 0 9.314 5.714 15.464 12.978 15.464 4.347 0 8.011-2.112 9.811-5.466h.124l.373 4.781h6.769c-.125-2.05-.249-5.4-.249-8.507v-35.583zm-7.637 30.99c0 .807-.063 1.549-.248 2.233-.746 3.29-3.477 5.402-6.583 5.402-4.843 0-7.575-4.036-7.575-9.624s2.732-9.937 7.638-9.937c3.477 0 5.898 2.42 6.581 5.343.124.62.187 1.427.187 2.046v4.536zm26.714-17.825c-9.686 0-14.78 7.887-14.78 16.272 0 9.252 5.776 15.273 15.588 15.273 4.347 0 7.948-.807 10.556-1.924l-1.118-5.217c-2.359.807-4.843 1.369-8.383 1.369-4.905 0-9.128-2.36-9.314-7.826h20.244c.123-.684.247-1.801.247-3.228 0-6.644-3.228-14.719-13.04-14.719zm-7.45 12.607c.31-3.105 2.296-7.39 7.016-7.39 5.091 0 6.333 4.594 6.271 7.39h-13.288zm56.336-17.885c3.415 0 6.21.746 8.197 1.614l1.614-6.085c-1.553-.808-5.091-1.863-10.121-1.863-12.793 0-22.418 8.323-22.418 22.108 0 12.79 8.072 21.114 21.362 21.114 5.091 0 9.065-.995 10.867-1.863l-1.243-6.024c-2.048.868-5.279 1.488-8.32 1.488-9.252 0-14.594-5.837-14.594-15.09 0-10.06 6.149-15.4 14.656-15.4zm25.598 5.278c-9.686 0-14.78 7.887-14.78 16.272 0 9.252 5.776 15.273 15.588 15.273 4.347 0 7.948-.807 10.557-1.924l-1.12-5.217c-2.357.807-4.842 1.369-8.382 1.369-4.905 0-9.128-2.36-9.314-7.826h20.244c.123-.684.247-1.801.247-3.228 0-6.644-3.228-14.719-13.04-14.719zm-7.45 12.607c.31-3.105 2.296-7.39 7.016-7.39 5.091 0 6.333 4.594 6.271 7.39h-13.288zm31.493-6.211h-.186l-.31-5.711h-6.582c.185 2.67.248 5.65.248 9.75v20.49h7.639v-15.71c0-.806.061-1.613.185-2.298.683-3.477 3.229-5.775 6.832-5.775.931 0 1.614.06 2.295.187v-7.141a7.896 7.896 0 0 0-1.8-.188c-3.291 0-6.83 2.173-8.321 6.396zm33.479-1.676h-.123c-1.43-2.486-4.1-4.72-8.755-4.72-7.267 0-13.724 6.025-13.724 15.962 0 8.568 5.34 14.776 12.852 14.776 4.036 0 7.08-1.798 8.82-4.471h.123v2.608c0 6.522-3.726 9.13-8.694 9.13-3.664 0-6.893-1.182-8.817-2.298l-1.675 5.775c2.605 1.553 6.705 2.421 10.553 2.421 4.162 0 8.572-.868 11.674-3.664 3.167-2.857 4.471-7.39 4.471-13.724v-17.136c0-4.162.126-6.647.249-8.694h-6.644l-.31 4.035zm-.93 12.978c0 .869-.064 1.925-.313 2.67-.868 2.796-3.351 4.659-6.208 4.659-4.781 0-7.39-4.161-7.39-9.314 0-6.15 3.167-9.876 7.451-9.876 3.229 0 5.405 2.112 6.212 4.908.184.62.248 1.304.248 2.05v4.903zm32.362-17.013l-4.716 16.145c-.623 1.924-1.182 4.223-1.618 5.898h-.184a100.711 100.711 0 0 0-1.74-5.837l-5.4-16.206h-8.446l11.115 27.758c.31.742.371 1.178.371 1.488 0 .374-.122.807-.432 1.365-1.056 2.05-2.735 3.852-4.223 4.782-1.553 1.12-3.106 1.801-4.41 2.111l1.74 6.399c1.863-.249 4.965-1.243 8.01-3.852 3.538-3.105 6.334-8.135 10.492-19.435l7.577-20.616h-8.136zm7.962 16.329h15.836v-5.275h-15.836v5.275zm31.8-28.252c-5.094 0-8.881.372-11.673.869v41.294h7.573v-15.835c1.056.248 2.299.31 3.726.31 5.404 0 10.124-1.488 13.227-4.533 2.298-2.234 3.541-5.466 3.541-9.44 0-3.91-1.617-7.202-4.1-9.249-2.67-2.237-6.705-3.416-12.294-3.416zm-.374 20.678c-1.553 0-2.731-.061-3.726-.374v-14.034c.807-.184 2.299-.371 4.41-.371 5.279 0 8.507 2.42 8.507 7.08 0 4.842-3.477 7.7-9.191 7.7zm33.298-9.44c-9.126 0-15.648 6.086-15.648 16.023 0 9.75 6.644 15.587 15.151 15.587 7.7 0 15.526-4.969 15.526-16.084 0-9.192-6.025-15.526-15.029-15.526zm-.248 26.083c-4.594 0-7.513-4.41-7.513-10.247 0-5.03 2.173-10.309 7.577-10.309 5.214 0 7.326 5.466 7.326 10.186 0 6.147-3.041 10.37-7.39 10.37zm36.213-26.083c-5.03 0-8.32 2.857-9.685 5.217h-.187l-.371-4.532H450.3c.122 2.605.245 5.523.245 9.004v21.236h7.638v-17.82c0-.872.126-1.802.375-2.422.807-2.298 2.918-4.475 5.96-4.475 4.16 0 5.775 3.294 5.775 7.642v17.075h7.639v-17.946c0-9.563-5.466-12.979-10.745-12.979zm25.354-7.08l-7.516 2.112v5.653h-4.284v5.71h4.284v14.222c0 3.974.746 6.77 2.421 8.507 1.43 1.553 3.726 2.486 6.583 2.486 2.36 0 4.41-.375 5.527-.807l-.122-5.776c-.872.249-1.618.31-2.984.31-2.918 0-3.91-1.863-3.91-5.588v-13.353h7.265v-5.711h-7.264v-7.765zm24.407 7.08c-9.127 0-15.648 6.086-15.648 16.023 0 9.75 6.644 15.587 15.15 15.587 7.7 0 15.526-4.969 15.526-16.084 0-9.192-6.024-15.526-15.028-15.526zm-.249 26.083c-4.594 0-7.512-4.41-7.512-10.247 0-5.03 2.172-10.309 7.577-10.309 5.214 0 7.325 5.466 7.325 10.186 0 6.147-3.041 10.37-7.39 10.37zm23.426-38.005c-2.547 0-4.284 1.801-4.284 4.161 0 2.234 1.676 4.097 4.223 4.097 2.67 0 4.345-1.863 4.345-4.097-.06-2.36-1.675-4.161-4.284-4.161zm-3.851 42.847h7.638v-30.24h-7.638v30.24zm25.466-18.07c-3.848-1.43-5.279-2.298-5.279-4.222 0-1.863 1.492-3.232 4.223-3.232 2.67 0 5.156.995 6.395 1.74l1.553-5.34c-1.801-.994-4.72-1.8-8.07-1.8-7.02 0-11.43 4.1-11.43 9.44 0 3.602 2.425 6.83 8.324 8.816 3.725 1.366 4.968 2.36 4.968 4.41 0 1.985-1.491 3.416-4.846 3.416-2.73 0-6.02-1.182-7.7-2.238l-1.552 5.589c2.237 1.243 5.527 2.111 9.191 2.111 8.01 0 12.297-3.974 12.297-9.501-.065-4.468-2.547-7.264-8.074-9.188zm38.26 1.864c0-6.644-3.228-14.719-13.04-14.719-9.688 0-14.78 7.887-14.78 16.272 0 9.252 5.776 15.273 15.588 15.273 4.345 0 7.948-.807 10.557-1.924l-1.117-5.217c-2.36.807-4.846 1.369-8.385 1.369-4.904 0-9.126-2.36-9.314-7.826h20.242c.126-.684.249-1.801.249-3.228zm-20.49-2.112c.31-3.105 2.298-7.39 7.015-7.39 5.094 0 6.334 4.594 6.272 7.39H579.51z" fill="#780d68"/></svg>